<?xml version="1.0" standalone="no"?>
<!DOCTYPE svg PUBLIC "-//W3C//DTD SVG 1.1//EN" "http://www.w3.org/Graphics/SVG/1.1/DTD/svg11.dtd" >
<svg xmlns="http://www.w3.org/2000/svg" xmlns:xlink="http://www.w3.org/1999/xlink" version="1.1">
<metadata></metadata>
<defs>
<font id="voltelight" horiz-adv-x="1335" >
<font-face units-per-em="2048" ascent="1536" descent="-512" />
<missing-glyph horiz-adv-x="512" />
<glyph unicode="&#xfb01;" horiz-adv-x="1140" d="M922 1305l-43 -50q-116 113 -287 113q-140 0 -210.5 -75.5t-70.5 -215.5v-96h604v-981h-65v920h-539v-920h-65v920h-146v61h146v102q0 171 94 259t252 88q100 0 188.5 -34t141.5 -91z" />
<glyph unicode="&#xfb02;" horiz-adv-x="1140" d="M100 920v61h146v82q0 181 96 274t256 93q155 0 274 -58h43v-1372h-65v1311q-99 57 -252 57q-141 0 -214 -81t-73 -230v-76h269v-61h-269v-920h-65v920h-146z" />
<glyph horiz-adv-x="0" />
<glyph horiz-adv-x="682" />
<glyph unicode=" "  horiz-adv-x="512" />
<glyph unicode="&#x09;" horiz-adv-x="512" />
<glyph unicode="&#xa0;" horiz-adv-x="512" />
<glyph unicode="!" horiz-adv-x="583" d="M326 342h-62l-8 971h78zM358 55q0 -26 -19.5 -45.5t-47.5 -19.5q-26 0 -46 19.5t-20 45.5q0 28 20 48t46 20q28 0 47.5 -20t19.5 -48z" />
<glyph unicode="&#x22;" horiz-adv-x="550" d="M203 1409l-21 -377h-39l-20 377h80zM428 1409l-20 -377h-39l-21 377h80z" />
<glyph unicode="#" horiz-adv-x="1189" d="M666 0l84 414h-404l-84 -414h-63l84 414h-242l10 57h244l76 373h-246l10 57h246l84 410h63l-84 -410h404l84 410h63l-84 -410h238l-10 -57h-238l-76 -373h240l-10 -57h-242l-84 -414h-63zM762 471l76 373h-404l-76 -373h404z" />
<glyph unicode="$" horiz-adv-x="1157" d="M997 1137l-51 -45q-48 67 -147 113t-211 46q-162 0 -260.5 -69t-98.5 -183q0 -57 27.5 -101.5t74 -73.5t107 -52.5t127.5 -43t133.5 -39.5t127 -48.5t107 -64.5t74 -91.5t27.5 -126.5q0 -158 -108.5 -253.5t-298.5 -104.5v-158h-66v158q-142 6 -255.5 61t-184.5 146 l49 45q74 -92 181.5 -141.5t236.5 -49.5q178 0 279.5 78t101.5 209q0 64 -27.5 114t-74 82t-107 57.5t-127.5 45t-133.5 39t-127 45.5t-107 59.5t-74 85.5t-27.5 119q0 138 108 225t289 93v157h66v-159q122 -7 222 -56.5t148 -117.5z" />
<glyph unicode="%" horiz-adv-x="1413" d="M307 647q-103 0 -170 95.5t-67 242.5t67 243.5t170 96.5t170.5 -97t67.5 -243q0 -147 -67.5 -242.5t-170.5 -95.5zM307 702q76 0 126 80t50 203t-49.5 202t-126.5 79q-76 0 -125 -79t-49 -202t49 -203t125 -80zM207 0l928 1313h71l-923 -1313h-76zM1104 -10 q-103 0 -170.5 95.5t-67.5 242.5q0 146 67.5 243t170.5 97t170 -96.5t67 -243.5t-67 -242.5t-170 -95.5zM1104 45q76 0 126 80t50 203t-49.5 201.5t-126.5 78.5q-76 0 -125 -78.5t-49 -201.5t49 -203t125 -80z" />
<glyph unicode="&#x26;" horiz-adv-x="1286" d="M608 1335q107 0 188 -48.5t111 -115.5l-47 -45q-31 67 -97 107.5t-163 40.5q-111 0 -185.5 -70.5t-74.5 -175.5q0 -59 23.5 -118t93.5 -128l499 -493l177 217l47 -37l-181 -223l226 -221l-43 -45l-221 217q-102 -118 -202 -167.5t-239 -49.5q-162 0 -269.5 113 t-107.5 286q0 228 242 385q-111 119 -111 262q0 131 95 220t239 89zM526 41q121 0 206 42t183 159l-487 479q-219 -130 -219 -342q0 -146 90 -242t227 -96z" />
<glyph unicode="'" horiz-adv-x="325" d="M203 1409l-21 -377h-39l-20 377h80z" />
<glyph unicode="(" horiz-adv-x="645" d="M154 571q0 251 111 473t300 386l39 -41q-179 -159 -282 -377.5t-103 -440.5t103 -440t282 -377l-39 -41q-189 164 -300 385.5t-111 472.5z" />
<glyph unicode=")" horiz-adv-x="645" d="M492 571q0 -251 -111.5 -472t-300.5 -386l-39 41q179 159 282 377t103 440t-103 440.5t-282 377.5l39 41q189 -165 300.5 -386.5t111.5 -472.5z" />
<glyph unicode="*" horiz-adv-x="790" d="M526 891l-131 199l-131 -199l-59 43l147 188l-229 62l22 71l224 -86l-11 240h74l-10 -240l223 86l23 -71l-230 -62l148 -188z" />
<glyph unicode="+" horiz-adv-x="1067" d="M567 1057v-365h338v-61h-338v-365h-65v365h-338v61h338v365h65z" />
<glyph unicode="," horiz-adv-x="276" d="M195 113l-146 -367h-55l100 367h101z" />
<glyph unicode="-" horiz-adv-x="624" d="M82 516h461v-61h-461v61z" />
<glyph unicode="." horiz-adv-x="276" d="M137 -10q-26 0 -45.5 19.5t-19.5 45.5q0 28 19.5 48t45.5 20q28 0 48 -20t20 -48q0 -26 -20 -45.5t-48 -19.5z" />
<glyph unicode="/" horiz-adv-x="804" d="M61 0l615 1313h67l-614 -1313h-68z" />
<glyph unicode="0" horiz-adv-x="1239" d="M618 -20q-129 0 -233 87t-162.5 242t-58.5 348q0 192 58.5 346.5t162.5 242t233 87.5q130 0 234.5 -87.5t163.5 -242t59 -346.5q0 -193 -59 -348t-163.5 -242t-234.5 -87zM618 41q111 0 200.5 79t140.5 220.5t51 316.5q0 266 -111.5 440.5t-280.5 174.5q-111 0 -200 -79 t-139 -219.5t-50 -316.5t50 -316.5t139 -220t200 -79.5z" />
<glyph unicode="1" horiz-adv-x="815" d="M508 0h-66v1225l-282 -277l-41 45l327 320h62v-1313z" />
<glyph unicode="2" horiz-adv-x="1015" d="M61 0v57l547 529q103 100 150 187.5t47 189.5q0 124 -92 216.5t-236 92.5q-232 0 -350 -215l-53 35q135 241 403 241q170 0 281.5 -109.5t111.5 -260.5q0 -117 -46.5 -210.5t-168.5 -209.5l-501 -482h739v-61h-832z" />
<glyph unicode="3" horiz-adv-x="1046" d="M473 -20q-135 0 -232.5 46.5t-179.5 149.5l50 47q79 -97 164.5 -139.5t197.5 -42.5q174 0 269.5 96t95.5 240q0 56 -13 103t-44 90.5t-79 73.5t-123 47.5t-171 17.5h-64v51l451 491h-682v62h764v-62l-445 -481q106 -4 188 -26.5t134.5 -58t86.5 -85.5t48 -104.5 t14 -118.5q0 -79 -27 -149.5t-79 -126.5t-135.5 -88.5t-188.5 -32.5z" />
<glyph unicode="4" horiz-adv-x="1124" d="M739 0v326h-657v61l670 926h53v-926h219v-61h-219v-326h-66zM739 387v811l-585 -811h585z" />
<glyph unicode="5" horiz-adv-x="1148" d="M555 39q174 0 269.5 99t95.5 245q0 71 -21 134t-63 114.5t-113 81.5t-164 30q-111 0 -181.5 -22t-148.5 -74l-34 19l112 647h613v-62h-562l-90 -520q114 72 291 72q107 0 190.5 -34.5t134 -94.5t76 -133.5t25.5 -157.5q0 -80 -27 -152t-79 -129t-135.5 -91t-188.5 -34 q-135 0 -232.5 47t-179.5 150l50 47q79 -97 164.5 -139.5t197.5 -42.5z" />
<glyph unicode="6" horiz-adv-x="1193" d="M604 -20q-184 0 -312 127.5t-128 312.5q0 103 36 188t122 201l372 504h78l-364 -500q88 43 194 43q194 0 316 -125.5t122 -310.5q0 -188 -126 -314t-310 -126zM604 795q-163 0 -269 -106t-106 -269q0 -164 106 -271.5t269 -107.5q160 0 265.5 107.5t105.5 271.5 q0 162 -105.5 268.5t-265.5 106.5z" />
<glyph unicode="7" horiz-adv-x="929" d="M281 0h-70l563 1251h-733v62h807v-56z" />
<glyph unicode="8" horiz-adv-x="1130" d="M922 369q0 139 -100.5 230t-254.5 91q-155 0 -256.5 -91t-101.5 -230q0 -141 101.5 -234.5t256.5 -93.5q153 0 254 93.5t101 234.5zM858 1012q0 113 -82.5 186.5t-208.5 73.5q-128 0 -211.5 -74t-83.5 -186t83.5 -186t211.5 -74q126 0 208.5 73.5t82.5 186.5zM565 1333 q155 0 257 -91.5t102 -231.5q0 -100 -62 -177t-166 -108q132 -34 211.5 -130t79.5 -224q0 -169 -119.5 -280t-302.5 -111t-302.5 111t-119.5 280q0 128 79.5 224t211.5 130q-104 31 -165.5 107.5t-61.5 177.5q0 140 101.5 231.5t256.5 91.5z" />
<glyph unicode="9" horiz-adv-x="1193" d="M590 1333q184 0 312 -127.5t128 -312.5q0 -103 -36 -188t-122 -201l-372 -504h-78l364 500q-88 -43 -194 -43q-194 0 -316 125.5t-122 310.5q0 188 126 314t310 126zM590 518q163 0 269 106t106 269q0 164 -106 271.5t-269 107.5q-160 0 -265.5 -107.5t-105.5 -271.5 q0 -162 105.5 -268.5t265.5 -106.5z" />
<glyph unicode=":" horiz-adv-x="276" d="M137 -10q-26 0 -45.5 19.5t-19.5 45.5q0 28 19.5 48t45.5 20q28 0 48 -20t20 -48q0 -26 -20 -45.5t-48 -19.5zM137 788q-26 0 -45.5 20t-19.5 46q0 28 19.5 48t45.5 20q28 0 48 -20t20 -48q0 -26 -20 -46t-48 -20z" />
<glyph unicode=";" horiz-adv-x="276" d="M137 788q-26 0 -45.5 20t-19.5 46q0 28 19.5 48t45.5 20q28 0 48 -20t20 -48q0 -26 -20 -46t-48 -20zM195 113l-146 -367h-55l100 367h101z" />
<glyph unicode="&#x3c;" horiz-adv-x="1067" d="M905 303v-70l-741 406v45l741 403v-69l-657 -356z" />
<glyph unicode="=" horiz-adv-x="1067" d="M164 774v62h741v-62h-741zM164 487v62h741v-62h-741z" />
<glyph unicode="&#x3e;" horiz-adv-x="1067" d="M164 303l657 359l-657 356v69l741 -403v-45l-741 -406v70z" />
<glyph unicode="?" horiz-adv-x="1024" d="M133 1063l-51 35q61 104 165 169.5t238 65.5q94 0 170.5 -31t125 -83t74.5 -117.5t26 -136.5q0 -116 -56 -210t-190 -190l-174 -123l-33 52l172 120q112 79 163.5 159.5t51.5 189.5q0 137 -94.5 223t-241.5 86q-202 0 -346 -209zM469 -10q-26 0 -46 19.5t-20 45.5 q0 28 20 48t46 20q28 0 48 -20t20 -48q0 -26 -20 -45.5t-48 -19.5z" />
<glyph unicode="@" horiz-adv-x="1785" d="M829 236q135 0 214 104.5t79 255.5q0 125 -59 209t-158 84q-125 0 -210 -101.5t-85 -250.5q0 -128 63 -214.5t156 -86.5zM903 -190q-154 0 -294.5 60.5t-242.5 162t-162.5 242t-60.5 294.5t60.5 294.5t162.5 242.5t242.5 162.5t294.5 60.5q153 0 291 -56.5t235.5 -150.5 t155 -221.5t57.5 -265.5q0 -196 -86 -327.5t-233 -131.5q-78 0 -133 49t-68 154q-38 -96 -113.5 -150.5t-181.5 -54.5q-119 0 -200.5 97.5t-81.5 256.5q0 178 103 300t253 122q177 0 234 -180l8 158h65l-24 -428q-13 -262 143 -262q79 0 137 53.5t85.5 141.5t27.5 200 q0 127 -51.5 243.5t-140 202.5t-214.5 137.5t-268 51.5q-189 0 -349 -94t-252.5 -254.5t-92.5 -350.5q0 -188 92.5 -348.5t252.5 -255t349 -94.5q114 0 190 20.5t150 65.5l31 -53q-147 -94 -371 -94z" />
<glyph unicode="A" horiz-adv-x="1325" d="M1188 0l-172 406h-713l-174 -406h-68l564 1313h75l564 -1313h-76zM989 467l-330 774l-331 -774h661z" />
<glyph unicode="B" horiz-adv-x="1296" d="M236 0v1311h507q151 0 257 -98t106 -236q0 -109 -63 -185t-142 -106q111 -32 186.5 -117.5t75.5 -214.5q0 -146 -112.5 -250t-270.5 -104h-544zM733 1249h-432v-540h434q127 0 216 78.5t89 189.5q0 113 -90 192.5t-217 79.5zM768 647h-467v-586h465q137 0 234.5 86 t97.5 207t-96.5 207t-233.5 86z" />
<glyph unicode="C" horiz-adv-x="1339" d="M1255 1192l-41 -51q-89 66 -182.5 98.5t-218.5 32.5q-161 0 -298 -83t-216.5 -225.5t-79.5 -310.5q0 -167 80 -307.5t220.5 -222.5t309.5 -82q235 0 390 125l38 -45q-93 -77 -197.5 -109t-236.5 -32q-184 0 -338 90t-242.5 244.5t-88.5 338.5q0 138 52 264t140 217 t210.5 145t256.5 54q138 0 243.5 -34t198.5 -107z" />
<glyph unicode="D" horiz-adv-x="1468" d="M236 0v1311h342q333 0 535 -180t202 -476t-193 -475.5t-510 -179.5h-376zM590 1249h-289v-1188h289q298 0 478.5 163t180.5 431t-180.5 431t-478.5 163z" />
<glyph unicode="E" horiz-adv-x="1150" d="M236 0v1313h802v-62h-737v-565h655v-61h-655v-564h737v-61h-802z" />
<glyph unicode="F" horiz-adv-x="1118" d="M236 0v1311h780v-62h-715v-573h633v-62h-633v-614h-65z" />
<glyph unicode="G" horiz-adv-x="1431" d="M1257 80q-93 -55 -197 -77.5t-237 -22.5q-184 0 -338 90t-242.5 244.5t-88.5 338.5q0 138 52 264t140 217t210.5 145t256.5 54q138 0 243.5 -34t198.5 -107l-41 -51q-89 66 -182.5 98.5t-218.5 32.5q-161 0 -298 -83t-216.5 -225.5t-79.5 -310.5q0 -167 80 -307.5 t220.5 -222.5t309.5 -82q204 0 363 78v520h65v-559z" />
<glyph unicode="H" horiz-adv-x="1509" d="M1208 0v625h-907v-625h-65v1313h65v-627h907v627h66v-1313h-66z" />
<glyph unicode="I" horiz-adv-x="536" d="M236 0v1313h65v-1313h-65z" />
<glyph unicode="J" horiz-adv-x="868" d="M61 96l48 45q37 -46 94 -73t125 -27q123 0 191.5 76.5t68.5 228.5v967h65v-979q0 -176 -92 -265t-233 -89q-79 0 -152.5 30.5t-114.5 85.5z" />
<glyph unicode="K" horiz-adv-x="1179" d="M236 0v1313h65v-639h186l529 639h80l-547 -666l567 -647h-88l-541 612h-186v-612h-65z" />
<glyph unicode="L" horiz-adv-x="1107" d="M236 0v1313h65v-1252h746v-61h-811z" />
<glyph unicode="M" horiz-adv-x="1742" d="M872 274l-571 922v-1196h-65v1313h73l568 -922l565 922h65v-1313h-65v1196z" />
<glyph unicode="N" horiz-adv-x="1509" d="M1210 0l-919 1217v-1217h-66v1313h74l920 -1217v1217h65v-1313h-74z" />
<glyph unicode="O" horiz-adv-x="1626" d="M813 1333q134 0 256.5 -54t211 -145t140.5 -217t52 -264q0 -137 -52 -262t-140.5 -215t-210.5 -143t-257 -53q-180 0 -331.5 90t-239.5 245t-88 338q0 138 52 264t140 217t210.5 145t256.5 54zM813 41q161 0 298 82t216.5 223t79.5 307q0 168 -79.5 310.5t-216.5 225.5 t-298 83t-298 -83t-216.5 -225.5t-79.5 -310.5q0 -166 79.5 -307t216.5 -223t298 -82z" />
<glyph unicode="P" horiz-adv-x="1275" d="M236 0v1313h446q208 0 334.5 -105.5t126.5 -279.5q0 -172 -128.5 -277.5t-340.5 -105.5h-373v-545h-65zM688 1251h-387v-645h387q175 0 282 88.5t107 233.5q0 147 -106.5 235t-282.5 88z" />
<glyph unicode="Q" horiz-adv-x="1626" d="M813 1333q134 0 256.5 -54t211 -145t140.5 -217t52 -264q0 -234 -141.5 -416t-358.5 -237l485 -229l-26 -60l-568 271q-16 -2 -51 -2q-180 0 -331.5 90t-239.5 245t-88 338q0 138 52 264t140 217t210.5 145t256.5 54zM813 41q161 0 298 82t216.5 223t79.5 307 q0 168 -79.5 310.5t-216.5 225.5t-298 83t-298 -83t-216.5 -225.5t-79.5 -310.5q0 -166 79.5 -307t216.5 -223t298 -82z" />
<glyph unicode="R" horiz-adv-x="1269" d="M236 0v1313h446q189 0 304.5 -100t115.5 -265q0 -149 -99.5 -246t-267.5 -114l381 -588h-76l-381 586h-358v-586h-65zM688 1251h-387v-604h387q157 0 252.5 83t95.5 218q0 138 -95.5 220.5t-252.5 82.5z" />
<glyph unicode="S" horiz-adv-x="1157" d="M997 1157l-51 -45q-48 67 -147 113.5t-211 46.5q-162 0 -260.5 -69t-98.5 -183q0 -77 44.5 -133t115.5 -88t156.5 -59t171.5 -57t157 -70t115.5 -110t44.5 -165q0 -166 -118.5 -262t-325.5 -96q-152 0 -273.5 55t-195.5 151l49 45q74 -92 181.5 -141t236.5 -49 q178 0 279.5 78t101.5 209q0 68 -27.5 121t-74 87.5t-107 61t-127.5 47.5t-133.5 42t-127 49t-107 63.5t-74 90.5t-27.5 126q0 143 116 230t308 87q133 0 244.5 -51.5t164.5 -124.5z" />
<glyph unicode="T" horiz-adv-x="1069" d="M1028 1251h-461v-1251h-65v1251h-461v62h987v-62z" />
<glyph unicode="U" horiz-adv-x="1382" d="M215 473v840h66v-846q0 -192 112.5 -309t296.5 -117q186 0 299 117t113 309v846h65v-840q0 -223 -131 -358t-346 -135t-345 135t-130 358z" />
<glyph unicode="V" horiz-adv-x="1243" d="M137 1313l488 -1237l489 1237h68l-523 -1313h-75l-523 1313h76z" />
<glyph unicode="W" horiz-adv-x="1972" d="M1821 1313h69l-430 -1313h-74l-399 1221l-401 -1221h-74l-430 1313h72l397 -1219l395 1219h82l397 -1219z" />
<glyph unicode="X" horiz-adv-x="1142" d="M160 1313l415 -592l414 592h72l-449 -643l469 -670h-77l-437 621l-434 -621h-72l469 674l-448 639h78z" />
<glyph unicode="Y" horiz-adv-x="1142" d="M539 0v453l-498 860h76l454 -791l457 791h74l-498 -860v-453h-65z" />
<glyph unicode="Z" horiz-adv-x="1142" d="M102 61l861 1190h-861v62h938v-62l-860 -1190h860v-61h-938v61z" />
<glyph unicode="[" horiz-adv-x="669" d="M236 -266v1675h352v-61h-287v-1553h287v-61h-352z" />
<glyph unicode="\" horiz-adv-x="804" d="M743 0h-67l-615 1313h68z" />
<glyph unicode="]" horiz-adv-x="669" d="M434 -266h-352v61h287v1553h-287v61h352v-1675z" />
<glyph unicode="^" horiz-adv-x="1067" d="M510 1313h57l310 -656h-68l-270 570l-279 -570h-67z" />
<glyph unicode="_" horiz-adv-x="849" d="M0 -41h850v-61h-850v61z" />
<glyph unicode="`" horiz-adv-x="819" d="M276 1409l201 -319h-63l-226 319h88z" />
<glyph unicode="a" d="M1044 0v240q-61 -120 -170.5 -190t-246.5 -70q-207 0 -345.5 149t-138.5 363q0 140 62 256.5t173.5 184.5t248.5 68q136 0 245.5 -70t171.5 -188v238h66v-981h-66zM629 41q180 0 297.5 132t117.5 321q0 123 -52.5 225t-148 161.5t-214.5 59.5q-181 0 -300.5 -129 t-119.5 -317q0 -123 53.5 -226.5t150.5 -165t216 -61.5z" />
<glyph unicode="b" d="M709 1001q207 0 345 -149t138 -363t-138 -361.5t-345 -147.5q-137 0 -247 68.5t-171 184.5v-233h-66v1409h66v-664q61 118 171 187t247 69zM711 940q-119 0 -216 -61.5t-150.5 -165t-53.5 -226.5q0 -188 119.5 -317t300.5 -129q119 0 214.5 59.5t148 161.5t52.5 225 q0 189 -117.5 321t-297.5 132z" />
<glyph unicode="c" horiz-adv-x="1038" d="M936 831q-119 109 -303 109t-304 -129t-120 -317q0 -123 53.5 -226.5t150.5 -165t216 -61.5q199 0 305 106l39 -47q-59 -59 -149.5 -89.5t-196.5 -30.5q-207 0 -345.5 149t-138.5 363q0 140 62.5 256.5t175.5 184.5t254 68q105 0 194.5 -32t147.5 -88z" />
<glyph unicode="d" d="M629 41q180 0 297.5 132t117.5 321q0 123 -52.5 225t-148 161.5t-214.5 59.5q-181 0 -300.5 -129t-119.5 -317q0 -123 53.5 -226.5t150.5 -165t216 -61.5zM1044 1409h66v-1409h-66v240q-61 -120 -170.5 -190t-246.5 -70q-207 0 -345.5 149t-138.5 363q0 140 62 256.5 t173.5 184.5t248.5 68q136 0 245.5 -70t171.5 -188v666z" />
<glyph unicode="e" horiz-adv-x="1187" d="M637 -20q-141 0 -255 69t-176.5 185.5t-62.5 257.5q0 214 133.5 361.5t335.5 147.5q130 0 237 -67t166.5 -179.5t59.5 -244.5q0 -21 -4 -37h-862q8 -183 128 -307.5t302 -124.5q96 0 184 32.5t146 90.5l39 -47q-65 -65 -163.5 -101t-207.5 -36zM612 940 q-165 0 -277.5 -117.5t-123.5 -292.5h797q-22 190 -129 300t-267 110z" />
<glyph unicode="f" horiz-adv-x="624" d="M666 1348l-43 -43q-56 63 -148 63q-81 0 -122.5 -49t-41.5 -139v-199h269v-61h-269v-920h-65v920h-146v61h146v205q0 120 62.5 182t166.5 62q125 0 191 -82z" />
<glyph unicode="g" d="M264 -250q153 -110 367 -110q202 0 307.5 108t105.5 315v177q-61 -120 -170.5 -190t-246.5 -70q-207 0 -345.5 149t-138.5 363q0 140 62 256.5t173.5 184.5t248.5 68q136 0 245.5 -70t171.5 -188v238h66v-911q0 -240 -122.5 -366t-356.5 -126q-248 0 -404 117zM629 41 q180 0 297.5 132t117.5 321q0 123 -52.5 225t-148 161.5t-214.5 59.5q-181 0 -300.5 -129t-119.5 -317q0 -123 53.5 -226.5t150.5 -165t216 -61.5z" />
<glyph unicode="h" horiz-adv-x="1206" d="M291 594v-594h-66v1409h66v-598q47 90 131 140t196 50q178 0 286 -107t108 -282v-612h-66v594q0 161 -87 253.5t-241 92.5q-153 0 -240 -92t-87 -254z" />
<glyph unicode="i" horiz-adv-x="516" d="M291 981v-981h-66v981h66zM258 1217q-23 0 -39 16t-16 39q0 22 16 38.5t39 16.5t39 -16.5t16 -38.5q0 -23 -16 -39t-39 -16z" />
<glyph unicode="j" horiz-adv-x="516" d="M258 1327q23 0 39 -16.5t16 -38.5q0 -23 -16 -39t-39 -16t-39 16t-16 39q0 22 16 38.5t39 16.5zM291 981v-1153q0 -123 -54.5 -186.5t-158.5 -63.5q-53 0 -87.5 12.5t-68.5 38.5l35 49q47 -38 121 -38q72 0 109.5 46.5t37.5 135.5v1159h66z" />
<glyph unicode="k" horiz-adv-x="1021" d="M225 0v1409h66v-862h211l362 434h74l-379 -459l391 -522h-80l-364 485h-215v-485h-66z" />
<glyph unicode="l" horiz-adv-x="516" d="M225 0v1409h66v-1409h-66z" />
<glyph unicode="m" horiz-adv-x="1845" d="M291 594v-594h-66v981h66v-164q45 87 124 135.5t183 48.5q126 0 216.5 -61.5t129.5 -169.5q41 107 128 169t206 62q168 0 270.5 -107t102.5 -282v-612h-66v594q0 162 -81.5 254t-225.5 92t-225.5 -92t-81.5 -254v-594h-66v594q0 162 -81.5 254t-225.5 92t-225.5 -92 t-81.5 -254z" />
<glyph unicode="n" horiz-adv-x="1206" d="M291 594v-594h-66v981h66v-170q47 90 131 140t196 50q178 0 286 -107t108 -282v-612h-66v594q0 161 -87 253.5t-241 92.5q-153 0 -240 -92t-87 -254z" />
<glyph unicode="o" horiz-adv-x="1253" d="M627 -20q-207 0 -345.5 149t-138.5 363q0 140 62 256.5t173.5 184.5t248.5 68q207 0 345 -147.5t138 -361.5t-138 -363t-345 -149zM629 41q180 0 297.5 132t117.5 321q0 123 -52.5 225t-148 161.5t-214.5 59.5q-181 0 -300.5 -129t-119.5 -317q0 -123 53.5 -226.5 t150.5 -165t216 -61.5z" />
<glyph unicode="p" d="M225 981h66v-236q61 118 171 187t247 69q207 0 345 -149t138 -363t-138 -361.5t-345 -147.5q-137 0 -247 68.5t-171 184.5v-634h-66v1382zM711 940q-119 0 -216 -61.5t-150.5 -165t-53.5 -226.5q0 -188 119.5 -317t300.5 -129q119 0 214.5 59.5t148 161.5t52.5 225 q0 189 -117.5 321t-297.5 132z" />
<glyph unicode="q" d="M629 41q180 0 297.5 132t117.5 321q0 123 -52.5 225t-148 161.5t-214.5 59.5q-181 0 -300.5 -129t-119.5 -317q0 -123 53.5 -226.5t150.5 -165t216 -61.5zM1044 981h66v-1382h-66v641q-61 -120 -170.5 -190t-246.5 -70q-207 0 -345.5 149t-138.5 363q0 140 62 256.5 t173.5 184.5t248.5 68q136 0 245.5 -70t171.5 -188v238z" />
<glyph unicode="r" horiz-adv-x="737" d="M291 594v-594h-66v981h66v-152q39 81 104.5 126.5t151.5 45.5q93 0 139 -34l-29 -60q-54 33 -122 33q-113 0 -178.5 -92.5t-65.5 -253.5z" />
<glyph unicode="s" horiz-adv-x="925" d="M209 760q0 -56 33.5 -96t86.5 -64t117.5 -44t129 -43t117.5 -53.5t86.5 -83t33.5 -124.5q0 -124 -92.5 -198t-247.5 -74q-248 0 -364 155l53 45q41 -63 123.5 -101t191.5 -38q126 0 198.5 57t72.5 150q0 61 -33.5 105t-86.5 69.5t-117.5 46t-129.5 42.5t-118 50.5 t-86.5 78.5t-33.5 118q0 107 86 175t234 68q229 0 321 -135l-53 -43q-49 64 -111 90.5t-157 26.5q-115 0 -184.5 -51t-69.5 -129z" />
<glyph unicode="t" horiz-adv-x="731" d="M100 920v61h146v225h65v-225h301v-61h-301v-689q0 -93 44.5 -141.5t129.5 -48.5q92 0 148 53l37 -51q-67 -63 -183 -63q-118 0 -179.5 62.5t-61.5 182.5v695h-146z" />
<glyph unicode="u" horiz-adv-x="1206" d="M270 981v-563q0 -164 90.5 -264.5t239.5 -100.5q152 0 244 100t92 265v563h65v-571q0 -189 -110 -303.5t-291 -114.5q-179 0 -287 114.5t-108 303.5v571h65z" />
<glyph unicode="v" horiz-adv-x="1001" d="M870 981h70l-397 -981h-84l-398 981h72l369 -915z" />
<glyph unicode="w" horiz-adv-x="1636" d="M1485 981h69l-335 -981h-76l-324 891l-323 -891h-78l-336 981h72l303 -901l325 901h76l324 -899z" />
<glyph unicode="x" horiz-adv-x="987" d="M844 0l-355 457l-352 -457h-76l390 506l-369 475h82l334 -428l331 428h76l-368 -479l389 -502h-82z" />
<glyph unicode="y" horiz-adv-x="1001" d="M117 981l405 -911l350 911h68l-463 -1200q-36 -97 -91 -150t-146 -53q-103 0 -179 68l37 51q63 -57 150 -57q57 0 96.5 36.5t75.5 128.5l72 185l-443 991h68z" />
<glyph unicode="z" horiz-adv-x="1005" d="M113 61l690 859h-680v61h760v-61l-690 -859h700v-61h-780v61z" />
<glyph unicode="{" horiz-adv-x="720" d="M123 541v61q107 0 145.5 43t38.5 150v354q0 117 63 188.5t189 71.5h80v-61h-74q-192 0 -192 -193v-379q0 -196 -154 -205q154 -9 154 -204v-379q0 -193 192 -193h74v-61h-80q-126 0 -189 71.5t-63 188.5v354q0 107 -38.5 150t-145.5 43z" />
<glyph unicode="|" horiz-adv-x="536" d="M301 -401h-65v1810h65v-1810z" />
<glyph unicode="}" horiz-adv-x="720" d="M598 541q-107 0 -145.5 -43t-38.5 -150v-354q0 -117 -63 -188.5t-189 -71.5h-80v61h74q192 0 192 193v379q0 195 154 204q-154 9 -154 205v379q0 193 -192 193h-74v61h80q126 0 189 -71.5t63 -188.5v-354q0 -107 38.5 -150t145.5 -43v-61z" />
<glyph unicode="~" horiz-adv-x="1067" d="M164 598v72q109 75 203 75q49 0 96 -16.5t77.5 -36.5t73.5 -36.5t86 -16.5q102 0 205 68v-72q-97 -62 -200 -62q-49 0 -96 16.5t-79 37t-75.5 37t-85.5 16.5q-65 0 -112 -22t-93 -60z" />
<glyph unicode="&#xa1;" horiz-adv-x="583" d="M328 -322h-78l8 971h61zM358 936q0 -28 -19.5 -48t-45.5 -20q-28 0 -48 20t-20 48q0 26 20 45.5t48 19.5q26 0 45.5 -19.5t19.5 -45.5z" />
<glyph unicode="&#xa2;" horiz-adv-x="1079" d="M936 987q-119 109 -303 109t-304 -129.5t-120 -317.5q0 -123 53.5 -226.5t150.5 -164.5t216 -61q199 0 305 106l39 -47q-115 -115 -324 -121v-155h-65v157q-191 17 -316 162.5t-125 347.5q0 201 124.5 345t318.5 163v158h65v-156q100 -3 185 -35t141 -86z" />
<glyph unicode="&#xa3;" horiz-adv-x="1091" d="M102 61h64q123 0 123 148v360h-144v62h144v315q0 176 107 282.5t276 106.5q116 0 202 -47t138 -129l-54 -41q-51 74 -125.5 115t-160.5 41q-148 0 -233 -95t-85 -239v-309h557v-62h-557v-364q0 -121 -84 -144h770v-61h-938v61z" />
<glyph unicode="&#xa4;" horiz-adv-x="1103" d="M883 629q0 150 -94.5 253t-237.5 103q-145 0 -240.5 -103.5t-95.5 -252.5q0 -151 95.5 -255t240.5 -104q143 0 237.5 104t94.5 255zM82 1026l43 47l149 -141q112 115 277 115q163 0 278 -115l150 141l43 -47l-152 -143q78 -111 78 -254q0 -144 -80 -254l154 -146l-43 -47 l-152 144q-114 -117 -276 -117t-277 115l-149 -142l-43 47l151 144q-83 113 -83 256q0 142 81 256z" />
<glyph unicode="&#xa5;" horiz-adv-x="1142" d="M604 453v-453h-65v453l-2 4h-392v61h355l-142 246h-213v61h179l-283 488h76l454 -791l457 791h74l-283 -488h178v-61h-213l-141 -246h354v-61h-391z" />
<glyph unicode="&#xa6;" horiz-adv-x="536" d="M301 1409v-747h-65v747h65zM301 346v-747h-65v747h65z" />
<glyph unicode="&#xa7;" horiz-adv-x="1320" d="M209 588q0 -68 41 -119.5t105 -80.5t150 -56.5t167.5 -47.5t167 -53t139.5 -73q59 30 96 84.5t37 115.5q0 74 -38.5 130t-98 88.5t-142 61.5t-160.5 47.5t-164 47t-142 60.5q-73 -25 -115.5 -80.5t-42.5 -124.5zM1059 1157l-51 -45q-48 67 -147.5 113.5t-211.5 46.5 q-161 0 -259.5 -69t-98.5 -183q0 -57 30.5 -101.5t81.5 -74t117.5 -52.5t140 -43t147.5 -41t140.5 -50.5t117.5 -67t81.5 -95t30.5 -130.5q0 -75 -44.5 -140t-113.5 -102q76 -76 76 -186q0 -166 -119 -262.5t-326 -96.5q-152 0 -273.5 55.5t-195.5 151.5l49 45 q74 -92 181.5 -141t236.5 -49q178 0 279.5 78t101.5 208q0 82 -49 140.5t-127 92t-172.5 60.5t-189.5 55t-173 64t-127 99.5t-49 150.5q0 69 45 133t134 102q-97 77 -97 193q0 143 116 230t308 87q133 0 245 -51.5t165 -124.5z" />
<glyph unicode="&#xa8;" horiz-adv-x="819" d="M266 1217q-23 0 -39 16t-16 39q0 22 16 38.5t39 16.5t39.5 -16.5t16.5 -38.5q0 -23 -16.5 -39t-39.5 -16zM553 1217q-23 0 -39 16t-16 39q0 22 16 38.5t39 16.5t39 -16.5t16 -38.5q0 -23 -16 -39t-39 -16z" />
<glyph unicode="&#xa9;" horiz-adv-x="1759" d="M881 1386q196 0 363 -97t264.5 -264t97.5 -363q0 -148 -57.5 -282.5t-155 -232t-231.5 -155.5t-281 -58q-148 0 -282.5 58t-232 155.5t-155 232t-57.5 282.5q0 147 57.5 281t155 231t232 154.5t282.5 57.5zM881 1325q-135 0 -257.5 -52.5t-211 -141t-141 -211.5 t-52.5 -258q0 -136 52.5 -259.5t141 -212.5t211 -141.5t257.5 -52.5q178 0 330 89t240.5 242.5t88.5 334.5q0 135 -52.5 258t-141 211.5t-210.5 141t-255 52.5zM1200 997l-41 -51q-59 54 -122.5 79.5t-151.5 25.5q-156 0 -267.5 -116t-111.5 -278q0 -161 113 -274t282 -113 q159 0 268 103l39 -45q-70 -64 -144 -91.5t-169 -27.5q-192 0 -323.5 130.5t-131.5 317.5q0 188 130 321.5t315 133.5q100 0 174.5 -27t140.5 -88z" />
<glyph unicode="&#xaa;" horiz-adv-x="870" d="M668 659v144q-41 -71 -109.5 -113.5t-152.5 -42.5q-136 0 -228 99t-92 241t91.5 240t228.5 98q84 0 152.5 -41.5t109.5 -112.5v140h63v-652h-63zM410 702q112 0 185 83.5t73 201.5t-72.5 198.5t-185.5 80.5q-112 0 -186 -80.5t-74 -198.5q0 -117 74.5 -201t185.5 -84z " />
<glyph unicode="&#xab;" horiz-adv-x="978" d="M123 494l321 403l43 -37l-290 -366l290 -367l-43 -37zM492 494l321 403l43 -37l-291 -366l291 -367l-43 -37z" />
<glyph unicode="&#xac;" horiz-adv-x="1067" d="M905 346h-65v285h-676v61h741v-346z" />
<glyph unicode="&#xad;" horiz-adv-x="624" d="M82 516h461v-61h-461v61z" />
<glyph unicode="&#xae;" horiz-adv-x="958" d="M481 1374q167 0 281.5 -120.5t114.5 -290.5q0 -176 -111 -292t-285 -116q-169 0 -284 119t-115 289t115 290.5t284 120.5zM481 1317q-143 0 -239.5 -103.5t-96.5 -250.5q0 -146 96.5 -248.5t239.5 -102.5q148 0 241 99.5t93 251.5q0 146 -96.5 250t-237.5 104zM330 735 v457h159q24 0 45.5 -3.5t50.5 -15t46.5 -39t17.5 -69.5q0 -65 -40 -93t-93 -32l168 -205h-76l-164 203h-51v-203h-63zM489 1133h-96v-136h96q20 0 34 2t29.5 8t23.5 21t8 37t-8 37t-23.5 21t-29.5 8t-34 2z" />
<glyph unicode="&#xaf;" horiz-adv-x="819" d="M147 1305h523v-62h-523v62z" />
<glyph unicode="&#xb0;" horiz-adv-x="720" d="M358 696q-135 0 -226 92t-91 224q0 135 91.5 227t229.5 92q146 0 232 -91t86 -228q0 -135 -87 -225.5t-235 -90.5zM358 754q113 0 186.5 71.5t73.5 186.5q0 121 -74 191.5t-182 70.5q-104 0 -182 -71.5t-78 -190.5q0 -115 77.5 -186.5t178.5 -71.5z" />
<glyph unicode="&#xb1;" horiz-adv-x="1067" d="M567 1057v-365h338v-61h-338v-365h-65v365h-338v61h338v365h65zM164 0v61h741v-61h-741z" />
<glyph unicode="&#xb2;" horiz-adv-x="616" d="M94 657v50l266 256q89 86 89 167q0 56 -40 96t-104 40q-106 0 -160 -103l-49 31q66 131 211 131q90 0 147.5 -56.5t57.5 -135.5q0 -57 -24.5 -104t-84.5 -103l-223 -213h340v-56h-426z" />
<glyph unicode="&#xb3;" horiz-adv-x="616" d="M301 647q-135 0 -211 101l45 40q66 -86 168 -86q78 0 120 42t42 106q0 67 -45.5 107t-145.5 40h-43v39l205 221h-315v56h391v-51l-205 -218q219 -13 219 -194q0 -87 -58.5 -145t-166.5 -58z" />
<glyph unicode="&#xb4;" horiz-adv-x="819" d="M543 1409h88l-225 -319h-64z" />
<glyph unicode="&#xb5;" horiz-adv-x="1226" d="M225 981h66v-563q0 -164 90.5 -264.5t239.5 -100.5q152 0 243.5 100t91.5 265v563h66v-571q0 -189 -110 -303.5t-291 -114.5q-107 0 -192.5 44.5t-137.5 125.5v-563h-66v1382z" />
<glyph unicode="&#xb6;" horiz-adv-x="1105" d="M870 1313v-1714h-65v1652h-125v-1652h-92v882q-214 4 -339.5 123t-125.5 303q0 186 124 296t339 110h284z" />
<glyph unicode="&#xb7;" horiz-adv-x="819" d="M410 592q-23 0 -39.5 16t-16.5 39q0 22 16.5 38.5t39.5 16.5t39 -16.5t16 -38.5q0 -23 -16 -39t-39 -16z" />
<glyph unicode="&#xb8;" horiz-adv-x="819" d="M403 23h58l-162 -367l-66 29z" />
<glyph unicode="&#xb9;" horiz-adv-x="616" d="M344 657h-61v578l-129 -125l-39 41l168 162h61v-656z" />
<glyph unicode="&#xba;" horiz-adv-x="819" d="M410 647q-137 0 -230.5 98.5t-93.5 239.5t93.5 240.5t230.5 99.5t229 -99.5t92 -240.5t-92 -239.5t-229 -98.5zM410 702q112 0 185 82.5t73 200.5q0 119 -73 200t-185 81t-186 -81.5t-74 -199.5q0 -117 74.5 -200t185.5 -83z" />
<glyph unicode="&#xbb;" horiz-adv-x="978" d="M856 494l-321 -404l-43 37l290 367l-290 366l43 37zM487 494l-321 -404l-43 37l291 367l-291 366l43 37z" />
<glyph unicode="&#xbc;" horiz-adv-x="1413" d="M344 657h-61v578l-129 -125l-39 41l168 162h61v-656zM223 0l928 1313h72l-924 -1313h-76zM1176 0v150h-322v57l330 448h53v-448h104v-57h-104v-150h-61zM1176 207v352l-256 -352h256z" />
<glyph unicode="&#xbd;" horiz-adv-x="1413" d="M344 657h-61v578l-129 -125l-39 41l168 162h61v-656zM178 0l928 1313h72l-924 -1313h-76zM891 0v49l266 256q88 85 88 168q0 56 -39.5 95.5t-103.5 39.5q-107 0 -160 -102l-49 31q65 131 211 131q90 0 147.5 -57t57.5 -136q0 -57 -24.5 -104t-84.5 -103l-223 -213h340 v-55h-426z" />
<glyph unicode="&#xbe;" horiz-adv-x="1413" d="M301 647q-135 0 -211 101l45 40q66 -86 168 -86q78 0 120 42t42 106q0 67 -45.5 107t-145.5 40h-43v39l205 221h-315v56h391v-51l-205 -218q219 -13 219 -194q0 -87 -58.5 -145t-166.5 -58zM260 0l928 1313h72l-924 -1313h-76zM1176 0v150h-322v57l330 448h53v-448h104 v-57h-104v-150h-61zM1176 207v352l-256 -352h256z" />
<glyph unicode="&#xbf;" horiz-adv-x="1024" d="M891 -72l51 -34q-61 -104 -165.5 -170t-237.5 -66q-94 0 -170.5 31t-125 83t-74.5 118t-26 137q0 116 56 209.5t190 189.5l174 123l33 -51l-172 -121q-113 -79 -164 -159t-51 -189q0 -137 94.5 -223.5t241.5 -86.5q202 0 346 209zM555 1001q26 0 46 -19.5t20 -45.5 q0 -28 -20 -48t-46 -20q-28 0 -48 20t-20 48q0 26 20 45.5t48 19.5z" />
<glyph unicode="&#xc0;" horiz-adv-x="1325" d="M1188 0l-172 406h-713l-174 -406h-68l564 1313h75l564 -1313h-76zM530 1741l201 -320h-63l-226 320h88zM989 467l-330 774l-331 -774h661z" />
<glyph unicode="&#xc1;" horiz-adv-x="1325" d="M1188 0l-172 406h-713l-174 -406h-68l564 1313h75l564 -1313h-76zM797 1741h88l-226 -320h-63zM989 467l-330 774l-331 -774h661z" />
<glyph unicode="&#xc2;" horiz-adv-x="1325" d="M1188 0l-172 406h-713l-174 -406h-68l564 1313h75l564 -1313h-76zM629 1741h69l250 -320h-67l-217 262l-218 -262h-67zM989 467l-330 774l-331 -774h661z" />
<glyph unicode="&#xc3;" horiz-adv-x="1325" d="M1188 0l-172 406h-713l-174 -406h-68l564 1313h75l564 -1313h-76zM799 1483q-33 0 -64.5 14.5t-56.5 35t-49 40.5t-51.5 34.5t-55.5 14.5q-75 0 -131 -119l-37 27q63 153 176 153q33 0 64 -14.5t55.5 -35t47.5 -40.5t50.5 -34.5t55.5 -14.5q82 0 131 119l37 -27 q-57 -153 -172 -153zM989 467l-330 774l-331 -774h661z" />
<glyph unicode="&#xc4;" horiz-adv-x="1325" d="M1188 0l-172 406h-713l-174 -406h-68l564 1313h75l564 -1313h-76zM520 1548q-23 0 -39 16.5t-16 39.5q0 22 16 38.5t39 16.5t39 -16.5t16 -38.5q0 -23 -16 -39.5t-39 -16.5zM807 1548q-23 0 -39 16.5t-16 39.5q0 22 16 38.5t39 16.5t39 -16.5t16 -38.5q0 -23 -16 -39.5 t-39 -16.5zM989 467l-330 774l-331 -774h661z" />
<glyph unicode="&#xc5;" horiz-adv-x="1325" d="M1188 0l-172 406h-713l-174 -406h-68l564 1313h75l564 -1313h-76zM664 1401q-89 0 -150 60t-61 145t61 144.5t150 59.5q90 0 150 -59t60 -145t-60 -145.5t-150 -59.5zM666 1456q63 0 107 42.5t44 107.5t-44 108t-107 43t-109.5 -43t-46.5 -108q0 -64 46.5 -107t109.5 -43 zM989 467l-330 774l-331 -774h661z" />
<glyph unicode="&#xc6;" horiz-adv-x="1683" d="M725 1251l-399 -784h503v784h-104zM829 0v406h-534l-207 -406h-68l666 1313h885v-62h-676v-565h594v-61h-594v-564h676v-61h-742z" />
<glyph unicode="&#xc7;" horiz-adv-x="1339" d="M1255 1192l-41 -51q-89 66 -182.5 98.5t-218.5 32.5q-161 0 -298 -83t-216.5 -225.5t-79.5 -310.5q0 -167 80 -307.5t220.5 -222.5t309.5 -82q235 0 390 125l38 -45q-93 -76 -197 -108.5t-233 -32.5l-143 -324l-66 29l150 297q-172 14 -312.5 106.5t-221 241.5t-80.5 323 q0 138 52 264t140 217t210.5 145t256.5 54q138 0 243.5 -34t198.5 -107z" />
<glyph unicode="&#xc8;" horiz-adv-x="1150" d="M236 0v1313h802v-62h-737v-565h655v-61h-655v-564h737v-61h-802zM504 1741l201 -320h-64l-225 320h88z" />
<glyph unicode="&#xc9;" horiz-adv-x="1150" d="M236 0v1313h802v-62h-737v-565h655v-61h-655v-564h737v-61h-802zM770 1741h88l-225 -320h-64z" />
<glyph unicode="&#xca;" horiz-adv-x="1150" d="M236 0v1313h802v-62h-737v-565h655v-61h-655v-564h737v-61h-802zM602 1741h70l250 -320h-68l-217 262l-217 -262h-68z" />
<glyph unicode="&#xcb;" horiz-adv-x="1150" d="M236 0v1313h802v-62h-737v-565h655v-61h-655v-564h737v-61h-802zM494 1548q-23 0 -39.5 16.5t-16.5 39.5q0 22 16.5 38.5t39.5 16.5t39 -16.5t16 -38.5q0 -23 -16 -39.5t-39 -16.5zM780 1548q-23 0 -39 16.5t-16 39.5q0 22 16 38.5t39 16.5t39.5 -16.5t16.5 -38.5 q0 -23 -16.5 -39.5t-39.5 -16.5z" />
<glyph unicode="&#xcc;" horiz-adv-x="536" d="M236 0v1313h65v-1313h-65zM135 1741l201 -320h-64l-225 320h88z" />
<glyph unicode="&#xcd;" horiz-adv-x="536" d="M236 0v1313h65v-1313h-65zM401 1741h88l-225 -320h-63z" />
<glyph unicode="&#xce;" horiz-adv-x="536" d="M236 0v1313h65v-1313h-65zM233 1741h70l250 -320h-68l-217 262l-217 -262h-67z" />
<glyph unicode="&#xcf;" horiz-adv-x="536" d="M236 0v1313h65v-1313h-65zM125 1548q-23 0 -39 16.5t-16 39.5q0 22 16 38.5t39 16.5t39 -16.5t16 -38.5q0 -23 -16 -39.5t-39 -16.5zM412 1548q-23 0 -39.5 16.5t-16.5 39.5q0 22 16.5 38.5t39.5 16.5t39 -16.5t16 -38.5q0 -23 -16 -39.5t-39 -16.5z" />
<glyph unicode="&#xd0;" horiz-adv-x="1468" d="M236 0v625h-185v61h185v625h342q333 0 535 -180t202 -476t-193 -475.5t-510 -179.5h-376zM590 1249h-289v-563h375v-61h-375v-564h289q298 0 478.5 163t180.5 431t-180.5 431t-478.5 163z" />
<glyph unicode="&#xd1;" horiz-adv-x="1509" d="M1210 0l-919 1217v-1217h-66v1313h74l920 -1217v1217h65v-1313h-74zM891 1483q-33 0 -64.5 14.5t-56.5 35t-49 40.5t-51.5 34.5t-55.5 14.5q-75 0 -131 -119l-37 27q63 153 177 153q33 0 64 -14.5t55 -35t47.5 -40.5t50.5 -34.5t55 -14.5q82 0 131 119l37 -27 q-57 -153 -172 -153z" />
<glyph unicode="&#xd2;" horiz-adv-x="1626" d="M813 1333q134 0 256.5 -54t211 -145t140.5 -217t52 -264q0 -137 -52 -262t-140.5 -215t-210.5 -143t-257 -53q-180 0 -331.5 90t-239.5 245t-88 338q0 138 52 264t140 217t210.5 145t256.5 54zM813 41q161 0 298 82t216.5 223t79.5 307q0 168 -79.5 310.5t-216.5 225.5 t-298 83t-298 -83t-216.5 -225.5t-79.5 -310.5q0 -166 79.5 -307t216.5 -223t298 -82zM680 1741l201 -320h-64l-225 320h88z" />
<glyph unicode="&#xd3;" horiz-adv-x="1626" d="M813 1333q134 0 256.5 -54t211 -145t140.5 -217t52 -264q0 -137 -52 -262t-140.5 -215t-210.5 -143t-257 -53q-180 0 -331.5 90t-239.5 245t-88 338q0 138 52 264t140 217t210.5 145t256.5 54zM813 41q161 0 298 82t216.5 223t79.5 307q0 168 -79.5 310.5t-216.5 225.5 t-298 83t-298 -83t-216.5 -225.5t-79.5 -310.5q0 -166 79.5 -307t216.5 -223t298 -82zM946 1741h88l-225 -320h-64z" />
<glyph unicode="&#xd4;" horiz-adv-x="1626" d="M813 1333q134 0 256.5 -54t211 -145t140.5 -217t52 -264q0 -137 -52 -262t-140.5 -215t-210.5 -143t-257 -53q-180 0 -331.5 90t-239.5 245t-88 338q0 138 52 264t140 217t210.5 145t256.5 54zM813 41q161 0 298 82t216.5 223t79.5 307q0 168 -79.5 310.5t-216.5 225.5 t-298 83t-298 -83t-216.5 -225.5t-79.5 -310.5q0 -166 79.5 -307t216.5 -223t298 -82zM778 1741h70l250 -320h-68l-217 262l-217 -262h-68z" />
<glyph unicode="&#xd5;" horiz-adv-x="1626" d="M813 1333q134 0 256.5 -54t211 -145t140.5 -217t52 -264q0 -137 -52 -262t-140.5 -215t-210.5 -143t-257 -53q-180 0 -331.5 90t-239.5 245t-88 338q0 138 52 264t140 217t210.5 145t256.5 54zM813 41q161 0 298 82t216.5 223t79.5 307q0 168 -79.5 310.5t-216.5 225.5 t-298 83t-298 -83t-216.5 -225.5t-79.5 -310.5q0 -166 79.5 -307t216.5 -223t298 -82zM948 1483q-33 0 -64.5 14.5t-56 35t-48.5 40.5t-51.5 34.5t-55.5 14.5q-75 0 -131 -119l-37 27q63 153 176 153q33 0 64 -14.5t55 -35t47.5 -40.5t50.5 -34.5t55 -14.5q82 0 131 119 l37 -27q-57 -153 -172 -153z" />
<glyph unicode="&#xd6;" horiz-adv-x="1626" d="M813 1333q134 0 256.5 -54t211 -145t140.5 -217t52 -264q0 -137 -52 -262t-140.5 -215t-210.5 -143t-257 -53q-180 0 -331.5 90t-239.5 245t-88 338q0 138 52 264t140 217t210.5 145t256.5 54zM813 41q161 0 298 82t216.5 223t79.5 307q0 168 -79.5 310.5t-216.5 225.5 t-298 83t-298 -83t-216.5 -225.5t-79.5 -310.5q0 -166 79.5 -307t216.5 -223t298 -82zM670 1548q-23 0 -39.5 16.5t-16.5 39.5q0 22 16.5 38.5t39.5 16.5t39 -16.5t16 -38.5q0 -23 -16 -39.5t-39 -16.5zM956 1548q-23 0 -39 16.5t-16 39.5q0 22 16 38.5t39 16.5t39.5 -16.5 t16.5 -38.5q0 -23 -16.5 -39.5t-39.5 -16.5z" />
<glyph unicode="&#xd7;" horiz-adv-x="1067" d="M279 965l258 -258l258 258l43 -43l-258 -258l258 -258l-47 -48l-259 258l-258 -258l-43 43l258 258l-258 259z" />
<glyph unicode="&#xd8;" horiz-adv-x="1626" d="M813 1333q192 0 350 -104l123 180l49 -35l-123 -180q121 -96 191 -237.5t70 -303.5q0 -137 -52 -262t-140.5 -215t-210.5 -143t-257 -53q-193 0 -354 104l-123 -180l-49 35l123 180q-119 96 -187.5 235t-68.5 299q0 138 52 264t140 217t210.5 145t256.5 54zM219 653 q0 -144 60.5 -269.5t166.5 -211.5l682 1006q-147 94 -315 94q-161 0 -298 -83t-216.5 -225.5t-79.5 -310.5zM813 41q161 0 298 82t216.5 223t79.5 307q0 146 -61 274t-168 216l-684 -1006q145 -96 319 -96z" />
<glyph unicode="&#xd9;" horiz-adv-x="1382" d="M215 473v840h66v-846q0 -192 112.5 -309t296.5 -117q186 0 299 117t113 309v846h65v-840q0 -223 -131 -358t-346 -135t-345 135t-130 358zM559 1741l201 -320h-64l-225 320h88z" />
<glyph unicode="&#xda;" horiz-adv-x="1382" d="M215 473v840h66v-846q0 -192 112.5 -309t296.5 -117q186 0 299 117t113 309v846h65v-840q0 -223 -131 -358t-346 -135t-345 135t-130 358zM825 1741h88l-225 -320h-63z" />
<glyph unicode="&#xdb;" horiz-adv-x="1382" d="M215 473v840h66v-846q0 -192 112.5 -309t296.5 -117q186 0 299 117t113 309v846h65v-840q0 -223 -131 -358t-346 -135t-345 135t-130 358zM657 1741h70l250 -320h-68l-217 262l-217 -262h-67z" />
<glyph unicode="&#xdc;" horiz-adv-x="1382" d="M215 473v840h66v-846q0 -192 112.5 -309t296.5 -117q186 0 299 117t113 309v846h65v-840q0 -223 -131 -358t-346 -135t-345 135t-130 358zM549 1548q-23 0 -39 16.5t-16 39.5q0 22 16 38.5t39 16.5t39 -16.5t16 -38.5q0 -23 -16 -39.5t-39 -16.5zM836 1548 q-23 0 -39.5 16.5t-16.5 39.5q0 22 16.5 38.5t39.5 16.5t39 -16.5t16 -38.5q0 -23 -16 -39.5t-39 -16.5z" />
<glyph unicode="&#xdd;" horiz-adv-x="1142" d="M539 0v453l-498 860h76l454 -791l457 791h74l-498 -860v-453h-65zM705 1741h88l-226 -320h-63z" />
<glyph unicode="&#xde;" horiz-adv-x="1275" d="M688 1016h-387v-645h387q175 0 282 88t107 233q0 147 -107 235.5t-282 88.5zM301 0h-65v1313h65v-236h381q208 0 334.5 -105.5t126.5 -279.5q0 -172 -128.5 -277.5t-340.5 -105.5h-373v-309z" />
<glyph unicode="&#xdf;" horiz-adv-x="1253" d="M641 1368q-161 0 -245.5 -97.5t-84.5 -277.5v-993h-65v999q0 203 104.5 317t288.5 114q178 0 283.5 -99t105.5 -264q0 -110 -54 -192.5t-149 -126.5q130 -30 207.5 -125t77.5 -242q0 -183 -119.5 -292t-304.5 -109q-164 0 -250 45l25 59q88 -43 229 -43q158 0 256 93.5 t98 246.5q0 150 -94.5 239t-277.5 89h-158v61h148q141 0 221 89t80 208q0 134 -86 217.5t-236 83.5z" />
<glyph unicode="&#xe0;" d="M1044 0v240q-61 -120 -170.5 -190t-246.5 -70q-207 0 -345.5 149t-138.5 363q0 140 62 256.5t173.5 184.5t248.5 68q136 0 245.5 -70t171.5 -188v238h66v-981h-66zM629 41q180 0 297.5 132t117.5 321q0 123 -52.5 225t-148 161.5t-214.5 59.5q-181 0 -300.5 -129 t-119.5 -317q0 -123 53.5 -226.5t150.5 -165t216 -61.5zM494 1409l200 -319h-63l-225 319h88z" />
<glyph unicode="&#xe1;" d="M1044 0v240q-61 -120 -170.5 -190t-246.5 -70q-207 0 -345.5 149t-138.5 363q0 140 62 256.5t173.5 184.5t248.5 68q136 0 245.5 -70t171.5 -188v238h66v-981h-66zM629 41q180 0 297.5 132t117.5 321q0 123 -52.5 225t-148 161.5t-214.5 59.5q-181 0 -300.5 -129 t-119.5 -317q0 -123 53.5 -226.5t150.5 -165t216 -61.5zM760 1409h88l-225 -319h-64z" />
<glyph unicode="&#xe2;" d="M1044 0v240q-61 -120 -170.5 -190t-246.5 -70q-207 0 -345.5 149t-138.5 363q0 140 62 256.5t173.5 184.5t248.5 68q136 0 245.5 -70t171.5 -188v238h66v-981h-66zM629 41q180 0 297.5 132t117.5 321q0 123 -52.5 225t-148 161.5t-214.5 59.5q-181 0 -300.5 -129 t-119.5 -317q0 -123 53.5 -226.5t150.5 -165t216 -61.5zM592 1409h70l249 -319h-67l-217 262l-217 -262h-68z" />
<glyph unicode="&#xe3;" d="M1044 0v240q-61 -120 -170.5 -190t-246.5 -70q-207 0 -345.5 149t-138.5 363q0 140 62 256.5t173.5 184.5t248.5 68q136 0 245.5 -70t171.5 -188v238h66v-981h-66zM629 41q180 0 297.5 132t117.5 321q0 123 -52.5 225t-148 161.5t-214.5 59.5q-181 0 -300.5 -129 t-119.5 -317q0 -123 53.5 -226.5t150.5 -165t216 -61.5zM762 1151q-33 0 -64.5 14.5t-56.5 35t-49 40.5t-51.5 34.5t-55.5 14.5q-75 0 -131 -119l-37 27q64 154 177 154q41 0 79.5 -22t64 -48t60 -48t68.5 -22q82 0 131 119l37 -26q-58 -154 -172 -154z" />
<glyph unicode="&#xe4;" d="M1044 0v240q-61 -120 -170.5 -190t-246.5 -70q-207 0 -345.5 149t-138.5 363q0 140 62 256.5t173.5 184.5t248.5 68q136 0 245.5 -70t171.5 -188v238h66v-981h-66zM629 41q180 0 297.5 132t117.5 321q0 123 -52.5 225t-148 161.5t-214.5 59.5q-181 0 -300.5 -129 t-119.5 -317q0 -123 53.5 -226.5t150.5 -165t216 -61.5zM483 1217q-23 0 -39 16t-16 39q0 22 16 38.5t39 16.5t39.5 -16.5t16.5 -38.5q0 -23 -16.5 -39t-39.5 -16zM770 1217q-23 0 -39 16t-16 39q0 22 16 38.5t39 16.5t39 -16.5t16 -38.5q0 -23 -16 -39t-39 -16z" />
<glyph unicode="&#xe5;" d="M1044 0v240q-61 -120 -170.5 -190t-246.5 -70q-207 0 -345.5 149t-138.5 363q0 140 62 256.5t173.5 184.5t248.5 68q136 0 245.5 -70t171.5 -188v238h66v-981h-66zM629 41q180 0 297.5 132t117.5 321q0 123 -52.5 225t-148 161.5t-214.5 59.5q-181 0 -300.5 -129 t-119.5 -317q0 -123 53.5 -226.5t150.5 -165t216 -61.5zM627 1069q-89 0 -150 60t-61 145t61 145t150 60q90 0 150.5 -59.5t60.5 -145.5t-60.5 -145.5t-150.5 -59.5zM629 1124q63 0 107 42.5t44 107.5t-44 108t-107 43t-109.5 -43t-46.5 -108q0 -64 46.5 -107t109.5 -43z " />
<glyph unicode="&#xe6;" horiz-adv-x="2088" d="M1044 0v240q-61 -120 -170.5 -190t-246.5 -70q-207 0 -345.5 149t-138.5 363q0 140 62 256.5t173.5 184.5t248.5 68q136 0 245.5 -70t171.5 -188v238h66v-242q58 121 164 191.5t239 70.5q130 0 237 -67t166.5 -179.5t59.5 -244.5q0 -21 -4 -37h-862q8 -183 128 -307.5 t302 -124.5q96 0 184 32.5t146 90.5l39 -47q-65 -65 -163.5 -101t-207.5 -36q-143 0 -255.5 72.5t-172.5 195.5v-248h-66zM629 41q180 0 297.5 132t117.5 321q0 123 -52.5 225t-148 161.5t-214.5 59.5q-181 0 -300.5 -129t-119.5 -317q0 -123 53.5 -226.5t150.5 -165 t216 -61.5zM1513 940q-165 0 -277.5 -117.5t-123.5 -292.5h797q-22 190 -129 300t-267 110z" />
<glyph unicode="&#xe7;" horiz-adv-x="1038" d="M936 831q-119 109 -303 109t-304 -129t-120 -317q0 -123 53.5 -226.5t150.5 -165t216 -61.5q199 0 305 106l39 -47q-110 -110 -318 -120l-143 -324l-66 29l150 295q-195 13 -324 160t-129 352q0 140 62.5 256.5t175.5 184.5t254 68q105 0 194.5 -32t147.5 -88z" />
<glyph unicode="&#xe8;" horiz-adv-x="1187" d="M637 -20q-141 0 -255 69t-176.5 185.5t-62.5 257.5q0 214 133.5 361.5t335.5 147.5q130 0 237 -67t166.5 -179.5t59.5 -244.5q0 -21 -4 -37h-862q8 -183 128 -307.5t302 -124.5q96 0 184 32.5t146 90.5l39 -47q-65 -65 -163.5 -101t-207.5 -36zM612 940 q-165 0 -277.5 -117.5t-123.5 -292.5h797q-22 190 -129 300t-267 110zM461 1409l201 -319h-64l-225 319h88z" />
<glyph unicode="&#xe9;" horiz-adv-x="1187" d="M637 -20q-141 0 -255 69t-176.5 185.5t-62.5 257.5q0 214 133.5 361.5t335.5 147.5q130 0 237 -67t166.5 -179.5t59.5 -244.5q0 -21 -4 -37h-862q8 -183 128 -307.5t302 -124.5q96 0 184 32.5t146 90.5l39 -47q-65 -65 -163.5 -101t-207.5 -36zM612 940 q-165 0 -277.5 -117.5t-123.5 -292.5h797q-22 190 -129 300t-267 110zM727 1409h88l-225 -319h-64z" />
<glyph unicode="&#xea;" horiz-adv-x="1187" d="M637 -20q-141 0 -255 69t-176.5 185.5t-62.5 257.5q0 214 133.5 361.5t335.5 147.5q130 0 237 -67t166.5 -179.5t59.5 -244.5q0 -21 -4 -37h-862q8 -183 128 -307.5t302 -124.5q96 0 184 32.5t146 90.5l39 -47q-65 -65 -163.5 -101t-207.5 -36zM612 940 q-165 0 -277.5 -117.5t-123.5 -292.5h797q-22 190 -129 300t-267 110zM559 1409h70l250 -319h-68l-217 262l-217 -262h-68z" />
<glyph unicode="&#xeb;" horiz-adv-x="1187" d="M637 -20q-141 0 -255 69t-176.5 185.5t-62.5 257.5q0 214 133.5 361.5t335.5 147.5q130 0 237 -67t166.5 -179.5t59.5 -244.5q0 -21 -4 -37h-862q8 -183 128 -307.5t302 -124.5q96 0 184 32.5t146 90.5l39 -47q-65 -65 -163.5 -101t-207.5 -36zM612 940 q-165 0 -277.5 -117.5t-123.5 -292.5h797q-22 190 -129 300t-267 110zM451 1217q-23 0 -39.5 16t-16.5 39q0 22 16.5 38.5t39.5 16.5t39 -16.5t16 -38.5q0 -23 -16 -39t-39 -16zM737 1217q-23 0 -39 16t-16 39q0 22 16 38.5t39 16.5t39.5 -16.5t16.5 -38.5q0 -23 -16.5 -39 t-39.5 -16z" />
<glyph unicode="&#xec;" horiz-adv-x="516" d="M291 981v-981h-66v981h66zM125 1409l201 -319h-64l-225 319h88z" />
<glyph unicode="&#xed;" horiz-adv-x="516" d="M291 981v-981h-66v981h66zM391 1409h88l-225 -319h-64z" />
<glyph unicode="&#xee;" horiz-adv-x="516" d="M291 981v-981h-66v981h66zM223 1409h70l250 -319h-68l-217 262l-217 -262h-68z" />
<glyph unicode="&#xef;" horiz-adv-x="516" d="M291 981v-981h-66v981h66zM115 1217q-23 0 -39.5 16t-16.5 39q0 22 16.5 38.5t39.5 16.5t39 -16.5t16 -38.5q0 -23 -16 -39t-39 -16zM401 1217q-23 0 -39 16t-16 39q0 22 16 38.5t39 16.5t39.5 -16.5t16.5 -38.5q0 -23 -16.5 -39t-39.5 -16z" />
<glyph unicode="&#xf0;" horiz-adv-x="1253" d="M629 41q180 0 297.5 125.5t117.5 306.5t-117 303.5t-298 122.5t-300.5 -123t-119.5 -303q0 -181 119.5 -306.5t300.5 -125.5zM627 961q120 0 225 -54t160 -135q-45 137 -132 258t-198 213l-166 -92l-27 49l146 80q-87 66 -172 106l43 44q97 -46 188 -115l142 78l26 -50 l-121 -67q167 -142 268 -340t101 -422q0 -248 -134.5 -391t-348.5 -143q-102 0 -192.5 39t-154.5 105t-100.5 156.5t-36.5 190.5q0 206 138.5 348t345.5 142z" />
<glyph unicode="&#xf1;" horiz-adv-x="1206" d="M291 594v-594h-66v981h66v-170q47 90 131 140t196 50q178 0 286 -107t108 -282v-612h-66v594q0 161 -87 253.5t-241 92.5q-153 0 -240 -92t-87 -254zM760 1151q-33 0 -64.5 14.5t-56.5 35t-49 40.5t-51.5 34.5t-55.5 14.5q-75 0 -131 -119l-37 27q64 154 177 154 q41 0 79.5 -22t64 -48t60 -48t68.5 -22q82 0 131 119l37 -26q-58 -154 -172 -154z" />
<glyph unicode="&#xf2;" horiz-adv-x="1253" d="M627 -20q-207 0 -345.5 149t-138.5 363q0 140 62 256.5t173.5 184.5t248.5 68q207 0 345 -147.5t138 -361.5t-138 -363t-345 -149zM629 41q180 0 297.5 132t117.5 321q0 123 -52.5 225t-148 161.5t-214.5 59.5q-181 0 -300.5 -129t-119.5 -317q0 -123 53.5 -226.5 t150.5 -165t216 -61.5zM494 1409l200 -319h-63l-225 319h88z" />
<glyph unicode="&#xf3;" horiz-adv-x="1253" d="M627 -20q-207 0 -345.5 149t-138.5 363q0 140 62 256.5t173.5 184.5t248.5 68q207 0 345 -147.5t138 -361.5t-138 -363t-345 -149zM629 41q180 0 297.5 132t117.5 321q0 123 -52.5 225t-148 161.5t-214.5 59.5q-181 0 -300.5 -129t-119.5 -317q0 -123 53.5 -226.5 t150.5 -165t216 -61.5zM760 1409h88l-225 -319h-64z" />
<glyph unicode="&#xf4;" horiz-adv-x="1253" d="M627 -20q-207 0 -345.5 149t-138.5 363q0 140 62 256.5t173.5 184.5t248.5 68q207 0 345 -147.5t138 -361.5t-138 -363t-345 -149zM629 41q180 0 297.5 132t117.5 321q0 123 -52.5 225t-148 161.5t-214.5 59.5q-181 0 -300.5 -129t-119.5 -317q0 -123 53.5 -226.5 t150.5 -165t216 -61.5zM592 1409h70l249 -319h-67l-217 262l-217 -262h-68z" />
<glyph unicode="&#xf5;" horiz-adv-x="1253" d="M627 -20q-207 0 -345.5 149t-138.5 363q0 140 62 256.5t173.5 184.5t248.5 68q207 0 345 -147.5t138 -361.5t-138 -363t-345 -149zM629 41q180 0 297.5 132t117.5 321q0 123 -52.5 225t-148 161.5t-214.5 59.5q-181 0 -300.5 -129t-119.5 -317q0 -123 53.5 -226.5 t150.5 -165t216 -61.5zM762 1151q-33 0 -64.5 14.5t-56.5 35t-49 40.5t-51.5 34.5t-55.5 14.5q-75 0 -131 -119l-37 27q64 154 177 154q41 0 79.5 -22t64 -48t60 -48t68.5 -22q82 0 131 119l37 -26q-58 -154 -172 -154z" />
<glyph unicode="&#xf6;" horiz-adv-x="1253" d="M627 -20q-207 0 -345.5 149t-138.5 363q0 140 62 256.5t173.5 184.5t248.5 68q207 0 345 -147.5t138 -361.5t-138 -363t-345 -149zM629 41q180 0 297.5 132t117.5 321q0 123 -52.5 225t-148 161.5t-214.5 59.5q-181 0 -300.5 -129t-119.5 -317q0 -123 53.5 -226.5 t150.5 -165t216 -61.5zM483 1217q-23 0 -39 16t-16 39q0 22 16 38.5t39 16.5t39.5 -16.5t16.5 -38.5q0 -23 -16.5 -39t-39.5 -16zM770 1217q-23 0 -39 16t-16 39q0 22 16 38.5t39 16.5t39 -16.5t16 -38.5q0 -23 -16 -39t-39 -16z" />
<glyph unicode="&#xf7;" horiz-adv-x="1067" d="M164 631v61h741v-61h-741zM526 242q-26 0 -45.5 19.5t-19.5 45.5q0 28 19.5 48t45.5 20q28 0 48 -20t20 -48q0 -26 -20 -45.5t-48 -19.5zM526 948q-26 0 -45.5 20t-19.5 46q0 28 19.5 47.5t45.5 19.5q28 0 48 -19.5t20 -47.5q0 -26 -20 -46t-48 -20z" />
<glyph unicode="&#xf8;" horiz-adv-x="1253" d="M627 -20q-142 0 -254 73l-103 -149l-49 35l103 149q-86 71 -133.5 176.5t-47.5 227.5q0 140 62 256.5t173.5 184.5t248.5 68q149 0 264 -79l106 155l50 -35l-107 -157q80 -70 125 -172.5t45 -220.5q0 -214 -138 -363t-345 -149zM209 494q0 -105 40 -197t111 -156l496 729 q-98 70 -227 70q-181 0 -300.5 -129t-119.5 -317zM629 41q180 0 297.5 132t117.5 321q0 101 -36.5 189t-102.5 151l-497 -728q100 -65 221 -65z" />
<glyph unicode="&#xf9;" horiz-adv-x="1206" d="M270 981v-563q0 -164 90.5 -264.5t239.5 -100.5q152 0 244 100t92 265v563h65v-571q0 -189 -110 -303.5t-291 -114.5q-179 0 -287 114.5t-108 303.5v571h65zM471 1409l201 -319h-64l-225 319h88z" />
<glyph unicode="&#xfa;" horiz-adv-x="1206" d="M270 981v-563q0 -164 90.5 -264.5t239.5 -100.5q152 0 244 100t92 265v563h65v-571q0 -189 -110 -303.5t-291 -114.5q-179 0 -287 114.5t-108 303.5v571h65zM737 1409h88l-225 -319h-63z" />
<glyph unicode="&#xfb;" horiz-adv-x="1206" d="M270 981v-563q0 -164 90.5 -264.5t239.5 -100.5q152 0 244 100t92 265v563h65v-571q0 -189 -110 -303.5t-291 -114.5q-179 0 -287 114.5t-108 303.5v571h65zM569 1409h70l250 -319h-68l-217 262l-217 -262h-68z" />
<glyph unicode="&#xfc;" horiz-adv-x="1206" d="M270 981v-563q0 -164 90.5 -264.5t239.5 -100.5q152 0 244 100t92 265v563h65v-571q0 -189 -110 -303.5t-291 -114.5q-179 0 -287 114.5t-108 303.5v571h65zM461 1217q-23 0 -39 16t-16 39q0 22 16 38.5t39 16.5t39 -16.5t16 -38.5q0 -23 -16 -39t-39 -16zM748 1217 q-23 0 -39.5 16t-16.5 39q0 22 16.5 38.5t39.5 16.5t39 -16.5t16 -38.5q0 -23 -16 -39t-39 -16z" />
<glyph unicode="&#xfd;" horiz-adv-x="1001" d="M117 981l405 -911l350 911h68l-463 -1200q-36 -97 -91 -150t-146 -53q-103 0 -179 68l37 51q63 -57 150 -57q57 0 96.5 36.5t75.5 128.5l72 185l-443 991h68zM635 1409h88l-225 -319h-64z" />
<glyph unicode="&#xfe;" d="M225 1409h66v-664q61 118 171 187t247 69q207 0 345 -149t138 -363t-138 -361.5t-345 -147.5q-137 0 -247 68.5t-171 184.5v-634h-66v1810zM711 940q-119 0 -216 -61.5t-150.5 -165t-53.5 -226.5q0 -188 119.5 -317t300.5 -129q119 0 214.5 59.5t148 161.5t52.5 225 q0 189 -117.5 321t-297.5 132z" />
<glyph unicode="&#xff;" horiz-adv-x="1001" d="M117 981l405 -911l350 911h68l-463 -1200q-36 -97 -91 -150t-146 -53q-103 0 -179 68l37 51q63 -57 150 -57q57 0 96.5 36.5t75.5 128.5l72 185l-443 991h68zM358 1217q-23 0 -39 16t-16 39q0 22 16 38.5t39 16.5t39.5 -16.5t16.5 -38.5q0 -23 -16.5 -39t-39.5 -16z M645 1217q-23 0 -39 16t-16 39q0 22 16 38.5t39 16.5t39 -16.5t16 -38.5q0 -23 -16 -39t-39 -16z" />
<glyph unicode="&#x152;" horiz-adv-x="2322" d="M813 41q161 0 298 82t216.5 223t79.5 307q0 168 -79.5 310.5t-216.5 225.5t-298 83t-298 -83t-216.5 -225.5t-79.5 -310.5q0 -166 79.5 -307t216.5 -223t298 -82zM1407 0v369q-79 -175 -239.5 -282t-354.5 -107q-180 0 -331.5 90t-239.5 245t-88 338q0 138 52 264 t140 217t210.5 145t256.5 54q194 0 354.5 -108t239.5 -285v373h803v-62h-737v-565h655v-61h-655v-564h737v-61h-803z" />
<glyph unicode="&#x153;" horiz-adv-x="2088" d="M627 -20q-207 0 -345.5 149t-138.5 363q0 140 62 256.5t173.5 184.5t248.5 68q159 0 280.5 -92.5t169.5 -242.5q47 151 164 243t272 92q130 0 237 -67t166.5 -179.5t59.5 -244.5q0 -21 -4 -37h-862q8 -183 128 -307.5t302 -124.5q96 0 184 32.5t146 90.5l39 -47 q-65 -65 -163.5 -101t-207.5 -36q-165 0 -289 93.5t-172 245.5q-48 -152 -169.5 -245.5t-280.5 -93.5zM629 41q180 0 297.5 132t117.5 321q0 123 -52.5 225t-148 161.5t-214.5 59.5q-181 0 -300.5 -129t-119.5 -317q0 -123 53.5 -226.5t150.5 -165t216 -61.5zM1513 940 q-165 0 -277.5 -117.5t-123.5 -292.5h797q-22 190 -129 300t-267 110z" />
<glyph unicode="&#x178;" horiz-adv-x="1142" d="M539 0v453l-498 860h76l454 -791l457 791h74l-498 -860v-453h-65zM428 1548q-23 0 -39 16.5t-16 39.5q0 22 16 38.5t39 16.5t39 -16.5t16 -38.5q0 -23 -16 -39.5t-39 -16.5zM715 1548q-23 0 -39.5 16.5t-16.5 39.5q0 22 16.5 38.5t39.5 16.5t39 -16.5t16 -38.5 q0 -23 -16 -39.5t-39 -16.5z" />
<glyph unicode="&#x2c6;" horiz-adv-x="819" d="M375 1409h69l250 -319h-67l-217 262l-217 -262h-68z" />
<glyph unicode="&#x2dc;" horiz-adv-x="819" d="M545 1151q-33 0 -64.5 14.5t-56.5 35t-49 40.5t-51.5 34.5t-55.5 14.5q-75 0 -131 -119l-37 27q64 154 176 154q41 0 79.5 -22t64 -48t60.5 -48t69 -22q82 0 131 119l37 -26q-58 -154 -172 -154z" />
<glyph unicode="&#x2000;" horiz-adv-x="905" />
<glyph unicode="&#x2001;" horiz-adv-x="1810" />
<glyph unicode="&#x2002;" horiz-adv-x="905" />
<glyph unicode="&#x2003;" horiz-adv-x="1810" />
<glyph unicode="&#x2004;" horiz-adv-x="603" />
<glyph unicode="&#x2005;" horiz-adv-x="452" />
<glyph unicode="&#x2006;" horiz-adv-x="301" />
<glyph unicode="&#x2007;" horiz-adv-x="301" />
<glyph unicode="&#x2008;" horiz-adv-x="226" />
<glyph unicode="&#x2009;" horiz-adv-x="362" />
<glyph unicode="&#x200a;" horiz-adv-x="100" />
<glyph unicode="&#x2010;" horiz-adv-x="624" d="M82 516h461v-61h-461v61z" />
<glyph unicode="&#x2011;" horiz-adv-x="624" d="M82 516h461v-61h-461v61z" />
<glyph unicode="&#x2012;" horiz-adv-x="624" d="M82 516h461v-61h-461v61z" />
<glyph unicode="&#x2013;" horiz-adv-x="1024" d="M82 516h860v-61h-860v61z" />
<glyph unicode="&#x2014;" horiz-adv-x="2048" d="M82 516h1884v-61h-1884v61z" />
<glyph unicode="&#x2018;" horiz-adv-x="325" d="M92 1032l92 377h49l-61 -377h-80z" />
<glyph unicode="&#x2019;" horiz-adv-x="325" d="M233 1409l-92 -377h-49l62 377h79z" />
<glyph unicode="&#x201a;" horiz-adv-x="325" d="M233 119l-92 -377h-49l62 377h79z" />
<glyph unicode="&#x201c;" horiz-adv-x="571" d="M338 1032l92 377h49l-61 -377h-80zM92 1032l92 377h49l-61 -377h-80z" />
<glyph unicode="&#x201d;" horiz-adv-x="571" d="M233 1409l-92 -377h-49l62 377h79zM479 1409l-92 -377h-49l61 377h80z" />
<glyph unicode="&#x201e;" horiz-adv-x="571" d="M233 119l-92 -377h-49l62 377h79zM479 119l-92 -377h-49l61 377h80z" />
<glyph unicode="&#x2022;" horiz-adv-x="745" d="M373 303q-88 0 -148.5 60.5t-60.5 148.5t60.5 148.5t148.5 60.5t148.5 -60.5t60.5 -148.5t-60.5 -148.5t-148.5 -60.5z" />
<glyph unicode="&#x2026;" horiz-adv-x="1013" d="M137 -10q-26 0 -45.5 19.5t-19.5 45.5q0 28 19.5 48t45.5 20q28 0 48 -20t20 -48q0 -26 -20 -45.5t-48 -19.5zM506 -10q-26 0 -46 19.5t-20 45.5q0 28 20 48t46 20q28 0 47.5 -20t19.5 -48q0 -26 -19.5 -45.5t-47.5 -19.5zM874 -10q-26 0 -45.5 19.5t-19.5 45.5 q0 28 19.5 48t45.5 20q28 0 48 -20t20 -48q0 -26 -20 -45.5t-48 -19.5z" />
<glyph unicode="&#x202f;" horiz-adv-x="362" />
<glyph unicode="&#x2039;" horiz-adv-x="610" d="M123 494l321 403l43 -37l-290 -366l290 -367l-43 -37z" />
<glyph unicode="&#x203a;" horiz-adv-x="610" d="M487 494l-321 -404l-43 37l291 367l-291 366l43 37z" />
<glyph unicode="&#x205f;" horiz-adv-x="452" />
<glyph unicode="&#x20ac;" horiz-adv-x="1357" d="M1274 1192l-41 -51q-89 66 -182.5 98.5t-219.5 32.5q-196 0 -351 -119t-214 -307h746l-19 -62h-741q-14 -60 -14 -131q0 -63 12 -121h680l-19 -61h-647q58 -190 217.5 -310t366.5 -120q234 0 389 125l39 -45q-93 -77 -197.5 -109t-236.5 -32q-231 0 -408.5 137.5 t-236.5 353.5h-156l18 61h123q-10 65 -10 121q0 67 12 131h-143l18 62h140q61 213 235.5 350t396.5 137q138 0 244 -34t199 -107z" />
<glyph unicode="&#x2122;" horiz-adv-x="1718" d="M328 596v655h-226v62h516v-62h-225v-655h-65zM1104 788l-316 426v-618h-65v717h72l311 -426l309 426h68v-717h-66v618z" />
<glyph unicode="&#x25fc;" horiz-adv-x="983" d="M0 983h983v-983h-983v983z" />
</font>
</defs>
</svg>
