<svg xmlns="http://www.w3.org/2000/svg" width="20" height="20" viewBox="0 0 20 20">
    <path fill="#FFF" fill-rule="nonzero" d="M10 20C4.477 20 0 15.523 0 10S4.477 0 10 0s10 4.477 10 10-4.477 10-10 10zm5.12-4.878v-3.808c0-1.87-.403-3.306-2.586-3.306-1.049 0-1.753.575-2.04 1.12h-.03v-.947H8.394v6.94h2.155v-3.433c0-.906.171-1.782 1.294-1.782 1.106 0 1.121 1.035 1.121 1.84v3.376h2.156zm-9.157-7.89a1.251 1.251 0 1 0-.001-2.503 1.251 1.251 0 0 0 .001 2.502zm-1.08 7.89h2.16V8.18h-2.16v6.94z"/>
</svg>
